<svg width="29" height="29" viewBox="0 0 29 29" fill="none" xmlns="http://www.w3.org/2000/svg">
<circle cx="14" cy="15" r="13" fill="#0350E4"/>
<path d="M8.13504 0.0493659C7.71624 0.195208 7.44353 0.506339 7.35587 0.953589C7.27795 1.38139 7.42405 1.9356 7.68702 2.22728C7.77468 2.32451 7.84285 2.42174 7.84285 2.45091C7.84285 2.4898 7.48249 2.76204 7.0442 3.07317C6.08972 3.73432 4.20996 5.58166 3.44053 6.61228C1.92115 8.65407 0.664731 11.3279 0.13879 13.6613C-0.0462633 14.4586 -0.0462633 17.6283 0.13879 18.4741C0.430979 19.8353 0.917962 21.0604 1.67765 22.3147C2.03802 22.9272 2.08672 23.0633 2.06724 23.5495C2.04776 23.9773 2.09646 24.162 2.25229 24.3759C2.51526 24.7259 3.02173 24.9787 3.48923 24.9884C3.79116 24.9884 3.96647 25.0759 4.4145 25.4649C4.71643 25.7274 5.3495 26.1843 5.80727 26.476C9.39146 28.7998 13.6769 29.5679 17.4754 28.5762C19.4525 28.0511 21.2738 27.108 22.988 25.7176C23.8743 24.9982 24.1275 24.7454 24.8288 23.9189C26.5235 21.8966 27.6436 19.8451 28.3546 17.4143C28.676 16.3157 28.7539 15.8781 28.9195 14.2058C29.1142 12.271 28.9584 10.6764 28.4227 9.01382C27.3611 5.69833 24.673 3.23846 20.4362 1.70225C20.1148 1.58557 19.6765 1.35223 19.4623 1.19666C18.8779 0.739687 17.8357 0.525785 15.5372 0.389665C14.6022 0.331328 13.5308 0.243823 13.151 0.195208C12.1088 0.0396431 8.47593 -0.0673081 8.13504 0.0493659ZM16.5988 3.2579C18.2253 3.58848 20.5044 4.34686 20.5044 4.57048C20.5044 4.69688 19.2285 5.58166 18.5759 5.91223C17.5338 6.42754 17.4169 7.1762 18.1864 8.33322C18.7707 9.22772 18.8974 9.57774 18.8876 10.2583C18.8681 11.2695 18.5565 11.7459 16.6085 13.7391C15.9949 14.3711 15.3424 15.1198 15.1573 15.4212C14.7385 16.092 14.6509 16.024 14.3295 14.7795C13.9107 13.1655 13.4334 12.096 12.6055 10.9681C12.3426 10.6084 12.1283 10.2681 12.1283 10.2097C12.1283 10.1514 12.2841 9.87915 12.4692 9.59719C13.5308 8.04154 13.4237 6.01919 12.1867 4.19129C11.9919 3.90933 11.8361 3.63709 11.8361 3.58848C11.8361 3.4718 12.7614 3.21901 13.5113 3.12178C14.6119 2.97594 15.3424 3.01483 16.5988 3.2579ZM9.52781 4.88161C10.2583 5.64972 10.57 6.2817 10.57 7.00119C10.57 7.74013 10.3459 8.20682 9.63495 8.94576C8.7389 9.88887 8.77786 10.4042 9.84922 11.5904C10.6576 12.4751 11.2128 13.3405 11.5634 14.2447C11.8653 15.0517 11.8653 16.8018 11.5634 17.9102C11.0569 19.6992 11.4757 20.584 13.2386 21.4299C14.7483 22.1494 15.4008 22.198 15.9852 21.6146C16.2871 21.3229 16.3163 21.2354 16.3163 20.7298C16.3163 20.0201 16.5404 18.7464 16.7644 18.1825C17.1734 17.1518 17.5825 16.5976 19.4136 14.585C20.7966 13.078 21.3907 12.2321 21.6147 11.4834C21.8972 10.5111 21.7706 9.42218 21.2251 8.34294C21.0985 8.09015 20.9914 7.80819 20.9914 7.71096C21.0011 7.61373 21.2836 7.32205 21.6439 7.04981C21.9946 6.77757 22.4523 6.43727 22.6666 6.2817L23.0464 5.99002L23.8256 6.76784C25.1697 8.08043 26.0852 9.65553 26.5527 11.4251C26.7378 12.1446 26.7767 12.5432 26.7767 13.6613C26.7767 15.3628 26.5625 16.3059 25.8417 17.9102C25.5885 18.4547 25.5203 18.5519 25.4034 18.4547C24.9846 18.1047 24.2152 15.3823 24.2055 14.2253C24.2055 13.4377 23.8451 12.903 23.212 12.7279C22.4523 12.5238 21.9361 12.8932 21.1667 14.1961C19.9687 16.2282 19.433 18.0755 19.433 20.2145C19.433 21.3715 19.472 21.6827 19.6765 22.4119C19.8129 22.8689 20.0077 23.4231 20.1148 23.637L20.3096 24.0162L19.9395 24.2495C19.0629 24.8037 17.4461 25.5037 16.4137 25.7857C15.0405 26.1552 13.151 26.3594 12.2062 26.2427C11.0082 26.0968 10.1414 25.9413 9.95636 25.844C9.66417 25.6982 9.22588 24.619 9.09927 23.7925C9.01161 23.2286 9.01161 22.7522 9.09927 21.8869C9.31354 19.5534 9.19666 16.2768 8.85578 15.4892C8.69994 15.1003 8.35905 14.8767 7.85259 14.8086C7.28769 14.7308 6.51826 15.1392 5.65143 15.9656C4.86252 16.7143 4.24892 17.5699 3.71324 18.7075C3.45027 19.2617 3.32366 19.4464 3.26522 19.3395C2.87563 18.6297 2.80745 15.6642 3.14834 14.0405C3.91777 10.4139 5.88518 7.1762 8.52463 5.24136C9.19666 4.74549 9.34276 4.68716 9.52781 4.88161ZM23.0659 19.7576L23.7185 21.1382L23.1633 21.7021C22.8517 22.0132 22.5595 22.266 22.4913 22.266C22.3257 22.266 22.0433 21.3229 21.9946 20.5354C21.9361 19.7478 22.1309 18.3769 22.2965 18.3769C22.3549 18.3769 22.6958 18.9992 23.0659 19.7576ZM6.45982 20.8562C6.41112 21.7118 6.39164 22.7619 6.42086 23.1897C6.45008 23.6175 6.44034 24.0259 6.40138 24.0939C6.30399 24.2495 5.14497 23.2286 5.05731 22.9175C4.95992 22.5188 6.0605 19.5242 6.36243 19.3589C6.45008 19.3103 6.528 19.2714 6.528 19.2811C6.53774 19.2909 6.49878 20.0006 6.45982 20.8562Z" fill="#F8D72C"/>
</svg>
