<svg width="228" height="29" viewBox="0 0 228 29" fill="none" xmlns="http://www.w3.org/2000/svg">
<circle cx="160" cy="15" r="13" fill="#0350E4"/>
<path d="M154.135 0.0493659C153.716 0.195208 153.444 0.506339 153.356 0.953589C153.278 1.38139 153.424 1.9356 153.687 2.22728C153.775 2.32451 153.843 2.42174 153.843 2.45091C153.843 2.4898 153.482 2.76204 153.044 3.07317C152.09 3.73432 150.21 5.58166 149.441 6.61228C147.921 8.65407 146.665 11.3279 146.139 13.6613C145.954 14.4586 145.954 17.6283 146.139 18.4741C146.431 19.8353 146.918 21.0604 147.678 22.3147C148.038 22.9272 148.087 23.0633 148.067 23.5495C148.048 23.9773 148.096 24.162 148.252 24.3759C148.515 24.7259 149.022 24.9787 149.489 24.9884C149.791 24.9884 149.966 25.0759 150.414 25.4649C150.716 25.7274 151.35 26.1843 151.807 26.476C155.391 28.7998 159.677 29.5679 163.475 28.5762C165.453 28.0511 167.274 27.108 168.988 25.7176C169.874 24.9982 170.128 24.7454 170.829 23.9189C172.524 21.8966 173.644 19.8451 174.355 17.4143C174.676 16.3157 174.754 15.8781 174.919 14.2058C175.114 12.271 174.958 10.6764 174.423 9.01382C173.361 5.69833 170.673 3.23846 166.436 1.70225C166.115 1.58557 165.677 1.35223 165.462 1.19666C164.878 0.739687 163.836 0.525785 161.537 0.389665C160.602 0.331328 159.531 0.243823 159.151 0.195208C158.109 0.0396431 154.476 -0.0673081 154.135 0.0493659ZM162.599 3.2579C164.225 3.58848 166.504 4.34686 166.504 4.57048C166.504 4.69688 165.229 5.58166 164.576 5.91223C163.534 6.42754 163.417 7.1762 164.186 8.33322C164.771 9.22772 164.897 9.57774 164.888 10.2583C164.868 11.2695 164.556 11.7459 162.609 13.7391C161.995 14.3711 161.342 15.1198 161.157 15.4212C160.739 16.092 160.651 16.024 160.329 14.7795C159.911 13.1655 159.433 12.096 158.606 10.9681C158.343 10.6084 158.128 10.2681 158.128 10.2097C158.128 10.1514 158.284 9.87915 158.469 9.59719C159.531 8.04154 159.424 6.01919 158.187 4.19129C157.992 3.90933 157.836 3.63709 157.836 3.58848C157.836 3.4718 158.761 3.21901 159.511 3.12178C160.612 2.97594 161.342 3.01483 162.599 3.2579ZM155.528 4.88161C156.258 5.64972 156.57 6.2817 156.57 7.00119C156.57 7.74013 156.346 8.20682 155.635 8.94576C154.739 9.88887 154.778 10.4042 155.849 11.5904C156.658 12.4751 157.213 13.3405 157.563 14.2447C157.865 15.0517 157.865 16.8018 157.563 17.9102C157.057 19.6992 157.476 20.584 159.239 21.4299C160.748 22.1494 161.401 22.198 161.985 21.6146C162.287 21.3229 162.316 21.2354 162.316 20.7298C162.316 20.0201 162.54 18.7464 162.764 18.1825C163.173 17.1518 163.583 16.5976 165.414 14.585C166.797 13.078 167.391 12.2321 167.615 11.4834C167.897 10.5111 167.771 9.42218 167.225 8.34294C167.099 8.09015 166.991 7.80819 166.991 7.71096C167.001 7.61373 167.284 7.32205 167.644 7.04981C167.995 6.77757 168.452 6.43727 168.667 6.2817L169.046 5.99002L169.826 6.76784C171.17 8.08043 172.085 9.65553 172.553 11.4251C172.738 12.1446 172.777 12.5432 172.777 13.6613C172.777 15.3628 172.562 16.3059 171.842 17.9102C171.588 18.4547 171.52 18.5519 171.403 18.4547C170.985 18.1047 170.215 15.3823 170.205 14.2253C170.205 13.4377 169.845 12.903 169.212 12.7279C168.452 12.5238 167.936 12.8932 167.167 14.1961C165.969 16.2282 165.433 18.0755 165.433 20.2145C165.433 21.3715 165.472 21.6827 165.677 22.4119C165.813 22.8689 166.008 23.4231 166.115 23.637L166.31 24.0162L165.939 24.2495C165.063 24.8037 163.446 25.5037 162.414 25.7857C161.04 26.1552 159.151 26.3594 158.206 26.2427C157.008 26.0968 156.141 25.9413 155.956 25.844C155.664 25.6982 155.226 24.619 155.099 23.7925C155.012 23.2286 155.012 22.7522 155.099 21.8869C155.314 19.5534 155.197 16.2768 154.856 15.4892C154.7 15.1003 154.359 14.8767 153.853 14.8086C153.288 14.7308 152.518 15.1392 151.651 15.9656C150.863 16.7143 150.249 17.5699 149.713 18.7075C149.45 19.2617 149.324 19.4464 149.265 19.3395C148.876 18.6297 148.807 15.6642 149.148 14.0405C149.918 10.4139 151.885 7.1762 154.525 5.24136C155.197 4.74549 155.343 4.68716 155.528 4.88161ZM169.066 19.7576L169.718 21.1382L169.163 21.7021C168.852 22.0132 168.559 22.266 168.491 22.266C168.326 22.266 168.043 21.3229 167.995 20.5354C167.936 19.7478 168.131 18.3769 168.296 18.3769C168.355 18.3769 168.696 18.9992 169.066 19.7576ZM152.46 20.8562C152.411 21.7118 152.392 22.7619 152.421 23.1897C152.45 23.6175 152.44 24.0259 152.401 24.0939C152.304 24.2495 151.145 23.2286 151.057 22.9175C150.96 22.5188 152.06 19.5242 152.362 19.3589C152.45 19.3103 152.528 19.2714 152.528 19.2811C152.538 19.2909 152.499 20.0006 152.46 20.8562Z" fill="#F8D72C"/>
<path d="M1.35 26.1V7.975H4.725V9.05C5.79167 8.21667 7.025 7.8 8.425 7.8C9.65833 7.8 10.775 8.1 11.775 8.7C12.775 9.3 13.5667 10.1083 14.15 11.125C14.75 12.125 15.05 13.25 15.05 14.5C15.05 15.75 14.75 16.8833 14.15 17.9C13.55 18.9 12.7417 19.7 11.725 20.3C10.7083 20.8833 9.575 21.175 8.325 21.175C7.675 21.175 7.05 21.0917 6.45 20.925C5.85 20.7417 5.29167 20.4833 4.775 20.15V26.1H1.35ZM7.875 18.275C8.59167 18.275 9.23333 18.1083 9.8 17.775C10.3833 17.4417 10.8417 16.9917 11.175 16.425C11.5083 15.8583 11.675 15.2167 11.675 14.5C11.675 13.7833 11.5083 13.1417 11.175 12.575C10.8417 11.9917 10.3833 11.5417 9.8 11.225C9.23333 10.8917 8.59167 10.725 7.875 10.725C7.24167 10.725 6.65833 10.8333 6.125 11.05C5.60833 11.25 5.15833 11.5583 4.775 11.975V17.05C5.14167 17.4333 5.59167 17.7333 6.125 17.95C6.675 18.1667 7.25833 18.275 7.875 18.275ZM21.3936 21.225C20.4602 21.225 19.6352 21.0583 18.9186 20.725C18.2019 20.375 17.6436 19.9 17.2436 19.3C16.8436 18.7 16.6436 18.0083 16.6436 17.225C16.6436 15.975 17.1102 15.0083 18.0436 14.325C18.9936 13.625 20.2936 13.275 21.9436 13.275C23.0769 13.275 24.1436 13.45 25.1436 13.8V12.85C25.1436 12.1 24.9102 11.5333 24.4436 11.15C23.9769 10.7667 23.2936 10.575 22.3936 10.575C21.8436 10.575 21.2519 10.6667 20.6186 10.85C19.9852 11.0167 19.2519 11.2833 18.4186 11.65L17.1686 9.125C18.2019 8.65833 19.1852 8.30833 20.1186 8.075C21.0686 7.84167 22.0186 7.725 22.9686 7.725C24.7186 7.725 26.0769 8.15 27.0436 9C28.0269 9.83333 28.5186 11.0167 28.5186 12.55V21H25.1436V20.075C24.6102 20.475 24.0352 20.7667 23.4186 20.95C22.8019 21.1333 22.1269 21.225 21.3936 21.225ZM19.8936 17.15C19.8936 17.65 20.1102 18.05 20.5436 18.35C20.9769 18.6333 21.5519 18.775 22.2686 18.775C22.8352 18.775 23.3602 18.7083 23.8436 18.575C24.3269 18.425 24.7602 18.2083 25.1436 17.925V16.025C24.7269 15.8583 24.2936 15.7333 23.8436 15.65C23.3936 15.5667 22.9102 15.525 22.3936 15.525C21.6102 15.525 20.9936 15.675 20.5436 15.975C20.1102 16.2583 19.8936 16.65 19.8936 17.15ZM31.1107 21V7.975H34.5357V9.05C35.5191 8.16667 36.7357 7.725 38.1857 7.725C39.2024 7.725 40.0941 7.95 40.8607 8.4C41.6441 8.83333 42.2524 9.44167 42.6857 10.225C43.1191 10.9917 43.3357 11.8917 43.3357 12.925V21H39.9107V13.425C39.9107 12.575 39.6691 11.9083 39.1857 11.425C38.7024 10.925 38.0441 10.675 37.2107 10.675C36.6274 10.675 36.1107 10.7917 35.6607 11.025C35.2107 11.2417 34.8357 11.5583 34.5357 11.975V21H31.1107ZM52.1551 21.25C50.8717 21.25 49.7134 20.9583 48.6801 20.375C47.6467 19.775 46.8301 18.9667 46.2301 17.95C45.6301 16.9167 45.3301 15.7667 45.3301 14.5C45.3301 13.2167 45.6301 12.0667 46.2301 11.05C46.8301 10.0333 47.6467 9.225 48.6801 8.625C49.7134 8.025 50.8717 7.725 52.1551 7.725C53.1884 7.725 54.1717 7.925 55.1051 8.325C56.0551 8.725 56.8717 9.3 57.5551 10.05L55.4551 12.275C54.9717 11.7417 54.4634 11.35 53.9301 11.1C53.4134 10.8333 52.8467 10.7 52.2301 10.7C51.5634 10.7 50.9634 10.8667 50.4301 11.2C49.9134 11.5333 49.4967 11.9833 49.1801 12.55C48.8801 13.1167 48.7301 13.7667 48.7301 14.5C48.7301 15.2 48.8801 15.8417 49.1801 16.425C49.4967 16.9917 49.9301 17.4417 50.4801 17.775C51.0301 18.0917 51.6384 18.25 52.3051 18.25C52.8884 18.25 53.4301 18.1333 53.9301 17.9C54.4467 17.65 54.9384 17.2833 55.4051 16.8L57.4551 18.95C56.7884 19.6667 55.9884 20.2333 55.0551 20.65C54.1217 21.05 53.1551 21.25 52.1551 21.25ZM59.2357 21V3.5L62.6607 2.75V9.05C63.6441 8.16667 64.8607 7.725 66.3107 7.725C67.3274 7.725 68.2191 7.95 68.9857 8.4C69.7691 8.83333 70.3774 9.44167 70.8107 10.225C71.2441 10.9917 71.4607 11.8917 71.4607 12.925V21H68.0357V13.425C68.0357 12.575 67.7941 11.9083 67.3107 11.425C66.8274 10.925 66.1691 10.675 65.3357 10.675C64.7524 10.675 64.2357 10.7917 63.7857 11.025C63.3357 11.2417 62.9607 11.5583 62.6607 11.975V21H59.2357ZM80.4301 21.25C79.1301 21.25 77.9467 20.95 76.8801 20.35C75.8301 19.75 74.9967 18.9417 74.3801 17.925C73.7634 16.9083 73.4551 15.7667 73.4551 14.5C73.4551 13.2333 73.7467 12.0917 74.3301 11.075C74.9301 10.0583 75.7384 9.25 76.7551 8.65C77.7717 8.05 78.9051 7.75 80.1551 7.75C81.4051 7.75 82.5134 8.05833 83.4801 8.675C84.4467 9.29167 85.2051 10.125 85.7551 11.175C86.3217 12.225 86.6051 13.4167 86.6051 14.75V15.65H76.9551C77.1051 16.1667 77.3467 16.6333 77.6801 17.05C78.0301 17.4667 78.4551 17.7917 78.9551 18.025C79.4717 18.2583 80.0217 18.375 80.6051 18.375C81.1884 18.375 81.7217 18.2833 82.2051 18.1C82.7051 17.9167 83.1301 17.6583 83.4801 17.325L85.7301 19.375C84.9301 20.025 84.1051 20.5 83.2551 20.8C82.4217 21.1 81.4801 21.25 80.4301 21.25ZM76.9051 13.2H83.2301C83.1134 12.6833 82.8967 12.2333 82.5801 11.85C82.2801 11.45 81.9134 11.1417 81.4801 10.925C81.0634 10.6917 80.5967 10.575 80.0801 10.575C79.5467 10.575 79.0634 10.6833 78.6301 10.9C78.1967 11.1167 77.8301 11.425 77.5301 11.825C77.2467 12.2083 77.0384 12.6667 76.9051 13.2ZM88.7035 21V3.5L92.1285 2.925V21H88.7035ZM94.807 21V7.975H98.232V21H94.807ZM96.507 6.425C95.9737 6.425 95.5154 6.23333 95.132 5.85C94.7487 5.46667 94.557 5.00833 94.557 4.475C94.557 3.925 94.7487 3.46667 95.132 3.1C95.5154 2.71667 95.9737 2.525 96.507 2.525C97.057 2.525 97.5154 2.71667 97.882 3.1C98.2654 3.46667 98.457 3.925 98.457 4.475C98.457 5.00833 98.2654 5.46667 97.882 5.85C97.5154 6.23333 97.057 6.425 96.507 6.425ZM105.961 21.25C104.961 21.25 104.069 21.0333 103.286 20.6C102.519 20.15 101.911 19.5333 101.461 18.75C101.027 17.9667 100.811 17.0667 100.811 16.05V7.975H104.236V15.55C104.236 16.3833 104.477 17.05 104.961 17.55C105.461 18.05 106.127 18.3 106.961 18.3C107.527 18.3 108.036 18.1917 108.486 17.975C108.952 17.7417 109.336 17.4167 109.636 17V7.975H113.061V21H109.636V19.95C108.636 20.8167 107.411 21.25 105.961 21.25ZM122.28 26.35C121.28 26.35 120.313 26.2417 119.38 26.025C118.447 25.825 117.605 25.5333 116.855 25.15L118.055 22.5C118.772 22.85 119.472 23.1083 120.155 23.275C120.838 23.4417 121.522 23.525 122.205 23.525C123.222 23.525 123.988 23.3083 124.505 22.875C125.038 22.4417 125.305 21.7917 125.305 20.925V19.9C124.238 20.6833 123.047 21.075 121.73 21.075C120.497 21.075 119.38 20.7833 118.38 20.2C117.397 19.6 116.605 18.7917 116.005 17.775C115.422 16.7583 115.13 15.6333 115.13 14.4C115.13 13.1667 115.422 12.05 116.005 11.05C116.605 10.05 117.413 9.25833 118.43 8.675C119.447 8.075 120.58 7.775 121.83 7.775C122.463 7.775 123.08 7.86667 123.68 8.05C124.28 8.23333 124.838 8.49167 125.355 8.825V7.975H128.73V20.975C128.73 22.6917 128.172 24.0167 127.055 24.95C125.955 25.8833 124.363 26.35 122.28 26.35ZM122.255 18.175C122.888 18.175 123.463 18.075 123.98 17.875C124.497 17.6583 124.938 17.3583 125.305 16.975V11.875C124.938 11.5083 124.488 11.225 123.955 11.025C123.438 10.8083 122.88 10.7 122.28 10.7C121.563 10.7 120.922 10.8667 120.355 11.2C119.788 11.5167 119.338 11.9583 119.005 12.525C118.672 13.075 118.505 13.7 118.505 14.4C118.505 15.1167 118.663 15.7583 118.98 16.325C119.313 16.8917 119.763 17.3417 120.33 17.675C120.913 18.0083 121.555 18.175 122.255 18.175ZM135.554 21.225C134.62 21.225 133.795 21.0583 133.079 20.725C132.362 20.375 131.804 19.9 131.404 19.3C131.004 18.7 130.804 18.0083 130.804 17.225C130.804 15.975 131.27 15.0083 132.204 14.325C133.154 13.625 134.454 13.275 136.104 13.275C137.237 13.275 138.304 13.45 139.304 13.8V12.85C139.304 12.1 139.07 11.5333 138.604 11.15C138.137 10.7667 137.454 10.575 136.554 10.575C136.004 10.575 135.412 10.6667 134.779 10.85C134.145 11.0167 133.412 11.2833 132.579 11.65L131.329 9.125C132.362 8.65833 133.345 8.30833 134.279 8.075C135.229 7.84167 136.179 7.725 137.129 7.725C138.879 7.725 140.237 8.15 141.204 9C142.187 9.83333 142.679 11.0167 142.679 12.55V21H139.304V20.075C138.77 20.475 138.195 20.7667 137.579 20.95C136.962 21.1333 136.287 21.225 135.554 21.225ZM134.054 17.15C134.054 17.65 134.27 18.05 134.704 18.35C135.137 18.6333 135.712 18.775 136.429 18.775C136.995 18.775 137.52 18.7083 138.004 18.575C138.487 18.425 138.92 18.2083 139.304 17.925V16.025C138.887 15.8583 138.454 15.7333 138.004 15.65C137.554 15.5667 137.07 15.525 136.554 15.525C135.77 15.525 135.154 15.675 134.704 15.975C134.27 16.2583 134.054 16.65 134.054 17.15Z" fill="#263147"/>
<path d="M184.575 21.25C183.292 21.25 182.133 20.9583 181.1 20.375C180.067 19.775 179.25 18.9667 178.65 17.95C178.05 16.9167 177.75 15.7667 177.75 14.5C177.75 13.2167 178.05 12.0667 178.65 11.05C179.25 10.0333 180.067 9.225 181.1 8.625C182.133 8.025 183.292 7.725 184.575 7.725C185.608 7.725 186.592 7.925 187.525 8.325C188.475 8.725 189.292 9.3 189.975 10.05L187.875 12.275C187.392 11.7417 186.883 11.35 186.35 11.1C185.833 10.8333 185.267 10.7 184.65 10.7C183.983 10.7 183.383 10.8667 182.85 11.2C182.333 11.5333 181.917 11.9833 181.6 12.55C181.3 13.1167 181.15 13.7667 181.15 14.5C181.15 15.2 181.3 15.8417 181.6 16.425C181.917 16.9917 182.35 17.4417 182.9 17.775C183.45 18.0917 184.058 18.25 184.725 18.25C185.308 18.25 185.85 18.1333 186.35 17.9C186.867 17.65 187.358 17.2833 187.825 16.8L189.875 18.95C189.208 19.6667 188.408 20.2333 187.475 20.65C186.542 21.05 185.575 21.25 184.575 21.25ZM197.639 21.25C196.339 21.25 195.164 20.95 194.114 20.35C193.064 19.75 192.231 18.9417 191.614 17.925C190.998 16.9083 190.689 15.7667 190.689 14.5C190.689 13.2333 190.989 12.0917 191.589 11.075C192.206 10.0417 193.039 9.225 194.089 8.625C195.156 8.025 196.339 7.725 197.639 7.725C198.939 7.725 200.114 8.025 201.164 8.625C202.231 9.225 203.064 10.0417 203.664 11.075C204.281 12.0917 204.589 13.2333 204.589 14.5C204.589 15.7667 204.281 16.9083 203.664 17.925C203.064 18.9417 202.239 19.75 201.189 20.35C200.139 20.95 198.956 21.25 197.639 21.25ZM197.639 18.275C198.323 18.275 198.931 18.1083 199.464 17.775C200.014 17.4417 200.448 16.9917 200.764 16.425C201.098 15.8417 201.264 15.2 201.264 14.5C201.264 13.7833 201.098 13.1417 200.764 12.575C200.448 12.0083 200.014 11.5583 199.464 11.225C198.931 10.875 198.323 10.7 197.639 10.7C196.973 10.7 196.364 10.875 195.814 11.225C195.264 11.5583 194.831 12.0083 194.514 12.575C194.198 13.1417 194.039 13.7833 194.039 14.5C194.039 15.2 194.198 15.8417 194.514 16.425C194.831 16.9917 195.264 17.4417 195.814 17.775C196.364 18.1083 196.973 18.275 197.639 18.275ZM206.695 21V7.975H210.12V8.975C211.053 8.14167 212.186 7.725 213.52 7.725C214.37 7.725 215.128 7.9 215.795 8.25C216.461 8.58333 217.011 9.05833 217.445 9.675C217.978 9.04167 218.603 8.55833 219.32 8.225C220.053 7.89167 220.861 7.725 221.745 7.725C222.728 7.725 223.586 7.95 224.32 8.4C225.07 8.83333 225.653 9.44167 226.07 10.225C226.503 10.9917 226.72 11.8917 226.72 12.925V21H223.32V13.425C223.32 12.575 223.095 11.9083 222.645 11.425C222.195 10.925 221.595 10.675 220.845 10.675C220.328 10.675 219.853 10.7833 219.42 11C219.003 11.2167 218.645 11.5417 218.345 11.975C218.361 12.125 218.378 12.275 218.395 12.425C218.411 12.575 218.42 12.7417 218.42 12.925V21H214.995V13.425C214.995 12.575 214.77 11.9083 214.32 11.425C213.886 10.925 213.295 10.675 212.545 10.675C212.028 10.675 211.561 10.775 211.145 10.975C210.745 11.175 210.403 11.475 210.12 11.875V21H206.695Z" fill="#263147"/>
</svg>
